<?xml version="1.0" encoding="UTF-8" standalone="no"?>
<!-- Created with Inkscape (http://www.inkscape.org/) -->

<svg
   width="210mm"
   height="297mm"
   viewBox="0 0 210 297"
   version="1.1"
   id="svg239"
   inkscape:version="1.1.1 (3bf5ae0d25, 2021-09-20)"
   sodipodi:docname="asztalok.svg"
   xmlns:inkscape="http://www.inkscape.org/namespaces/inkscape"
   xmlns:sodipodi="http://sodipodi.sourceforge.net/DTD/sodipodi-0.dtd"
   xmlns="http://www.w3.org/2000/svg"
   xmlns:svg="http://www.w3.org/2000/svg">
  <sodipodi:namedview
     id="namedview241"
     pagecolor="#ffffff"
     bordercolor="#666666"
     borderopacity="1.0"
     inkscape:pageshadow="2"
     inkscape:pageopacity="0.0"
     inkscape:pagecheckerboard="0"
     inkscape:document-units="mm"
     showgrid="false"
     inkscape:zoom="0.74118967"
     inkscape:cx="-151.78301"
     inkscape:cy="565.98198"
     inkscape:window-width="1920"
     inkscape:window-height="1017"
     inkscape:window-x="-8"
     inkscape:window-y="-8"
     inkscape:window-maximized="1"
     inkscape:current-layer="g3412" />
  <defs
     id="defs236" />
  <g
     inkscape:label="Hatos ovál"
     inkscape:groupmode="layer"
     id="layer1"
     style="display:inline">
    <g
       id="table_g873"
       transform="translate(17.134615,-15.706731)"
       style="fill:#000000;fill-opacity:1;image-rendering:auto">
      <title
         id="title203">table_g873</title>
      <g
         id="g977"
         style="fill:#000000;fill-opacity:1">
        <path
           fill="#ffffff"
           d="M 56.450277,36.028738 H 26.023194 c -10.980208,0 -19.9231247,8.942916 -19.9231247,19.923124 0,10.980209 8.9429167,19.923125 19.9231247,19.923125 h 30.427083 c 10.980208,0 19.923125,-8.942916 19.923125,-19.923125 0,-10.980208 -8.942917,-19.923124 -19.923125,-19.923124 z m 0,38.734999 H 26.023194 c -10.371666,0 -18.8118747,-8.440208 -18.8118747,-18.811875 0,-10.371666 8.4402087,-18.811874 18.8118747,-18.811874 h 30.427083 c 10.371667,0 18.811875,8.440208 18.811875,18.811874 0,10.371667 -8.440208,18.811875 -18.811875,18.811875 z"
           id="path97"
           style="fill:#000000;fill-opacity:1;stroke-width:0.264583" />
        <path
           fill="#ffffff"
           d="m 38.802569,29.863946 c 0,-2.037291 -1.666875,-3.677708 -3.677708,-3.677708 H 23.827152 c -2.037291,0 -3.677708,1.666875 -3.677708,3.677708 v 3.307292 h 18.679583 v -3.307292 z m -1.11125,2.196042 H 21.234236 v -2.2225 c 0,-1.42875 1.164166,-2.592917 2.592916,-2.592917 h 11.297709 c 1.42875,0 2.592916,1.164167 2.592916,2.592917 v 2.2225 z"
           id="path99"
           style="fill:#000000;fill-opacity:1;stroke-width:0.264583" />
        <path
           fill="#ffffff"
           d="m 63.461735,29.863946 c 0,-2.037291 -1.666875,-3.677708 -3.677708,-3.677708 H 48.486319 c -2.037292,0 -3.677708,1.666875 -3.677708,3.677708 v 3.307292 h 18.679583 v -3.307292 z m -1.11125,2.196042 H 45.893402 v -2.2225 c 0,-1.42875 1.164167,-2.592917 2.592917,-2.592917 h 11.297708 c 1.42875,0 2.592917,1.164167 2.592917,2.592917 v 2.2225 z"
           id="path101"
           style="fill:#000000;fill-opacity:1;stroke-width:0.264583" />
        <path
           fill="#ffffff"
           d="m 20.122986,82.224987 c 0,2.037292 1.666875,3.677708 3.677708,3.677708 h 11.297708 c 2.037292,0 3.677709,-1.666875 3.677709,-3.677708 V 78.917696 H 20.096527 v 3.307291 z m 1.11125,-2.196041 h 16.457083 v 2.222499 c 0,1.42875 -1.164167,2.592917 -2.592917,2.592917 H 23.800694 c -1.42875,0 -2.592917,-1.164167 -2.592917,-2.592917 v -2.222499 z"
           id="path103"
           style="fill:#000000;fill-opacity:1;stroke-width:0.264583" />
        <path
           fill="#ffffff"
           d="m -3.1074306,50.316238 v 11.297708 c 0,2.037291 1.666875,3.677708 3.67770833,3.677708 H 3.8775694 V 46.612071 H 0.57027773 c -2.03729163,0 -3.67770833,1.666875 -3.67770833,3.704167 z M 2.7927777,64.180404 H 0.57027773 c -1.42874998,0 -2.59291663,-1.164167 -2.59291663,-2.592917 V 50.289779 c 0,-1.42875 1.16416665,-2.592916 2.59291663,-2.592916 H 2.7927777 Z"
           id="path105"
           style="fill:#000000;fill-opacity:1;stroke-width:0.264583" />
        <path
           fill="#ffffff"
           d="m 81.532777,46.612071 h -3.307292 v 18.679583 h 3.307292 c 2.037291,0 3.677708,-1.666875 3.677708,-3.677708 V 50.316238 c 0.02646,-2.037292 -1.640417,-3.704167 -3.677708,-3.704167 z m 2.592916,15.001875 c 0,1.42875 -1.164166,2.592916 -2.592916,2.592916 h -2.2225 V 47.749779 h 2.2225 c 1.42875,0 2.592916,1.164167 2.592916,2.592917 z"
           id="path107"
           style="fill:#000000;fill-opacity:1;stroke-width:0.264583" />
        <path
           fill="#ffffff"
           d="m 44.782152,82.224987 c 0,2.037292 1.666875,3.677708 3.677708,3.677708 h 11.297709 c 2.037291,0 3.677708,-1.666875 3.677708,-3.677708 V 78.917696 H 44.755694 v 3.307291 z m 1.11125,-2.196041 h 16.457083 v 2.222499 c 0,1.42875 -1.164166,2.592917 -2.592916,2.592917 H 48.45986 c -1.42875,0 -2.592916,-1.164167 -2.592916,-2.592917 v -2.222499 z"
           id="path125"
           style="fill:#000000;fill-opacity:1;stroke-width:0.264583" />
      </g>
    </g>
  </g>
  <g
     inkscape:groupmode="layer"
     id="layer2"
     inkscape:label="Négyes kör"
     style="display:inline">
    <g
       id="table_g2186"
       transform="matrix(0.26458333,0,0,0.26458333,17.532859,-151.99221)"
       style="display:inline;fill:#000000;fill-opacity:1">
      <title
         id="title205">table_g2186</title>
      <path
         fill="#ffffff"
         d="m 454.3,732.6 v 42.7 c 0,7.7 6.3,13.9 13.9,13.9 h 12.5 v -70.6 h -12.5 c -7.6,0 -13.9,6.3 -13.9,14 z m 22.3,52.4 h -8.4 c -5.4,0 -9.8,-4.4 -9.8,-9.8 v -42.7 c 0,-5.4 4.4,-9.8 9.8,-9.8 h 8.4 z"
         id="path109"
         style="fill:#000000;fill-opacity:1" />
      <path
         fill="#ffffff"
         d="m 664.8,718.6 h -12.5 v 70.6 h 12.5 c 7.7,0 13.9,-6.3 13.9,-13.9 v -42.7 c 0.1,-7.7 -6.2,-14 -13.9,-14 z m 9.8,56.7 c 0,5.4 -4.4,9.8 -9.8,9.8 h -8.4 v -62.2 h 8.4 c 5.4,0 9.8,4.4 9.8,9.8 z"
         id="path111"
         style="fill:#000000;fill-opacity:1" />
      <path
         fill="#ffffff"
         d="m 601.8,655.6 c 0,-7.7 -6.3,-13.9 -13.9,-13.9 h -42.7 c -7.7,0 -13.9,6.3 -13.9,13.9 v 12.5 h 70.6 v -12.5 z m -4.1,8.4 h -62.2 v -8.4 c 0,-5.4 4.4,-9.8 9.8,-9.8 H 588 c 5.4,0 9.8,4.4 9.8,9.8 v 8.4 z"
         id="path113"
         style="fill:#000000;fill-opacity:1" />
      <path
         fill="#ffffff"
         d="m 531.3,852.2 c 0,7.7 6.3,13.9 13.9,13.9 h 42.7 c 7.7,0 13.9,-6.3 13.9,-13.9 v -12.5 h -70.6 v 12.5 z m 4.2,-8.4 h 62.2 v 8.4 c 0,5.4 -4.4,9.8 -9.8,9.8 h -42.7 c -5.4,0 -9.8,-4.4 -9.8,-9.8 v -8.4 z"
         id="path115"
         style="fill:#000000;fill-opacity:1" />
      <path
         fill="#ffffff"
         d="m 565.2,678.6 c -41.5,0 -75.3,33.8 -75.3,75.3 0,41.5 33.8,75.3 75.3,75.3 41.5,0 75.3,-33.8 75.3,-75.3 -0.1,-41.5 -33.8,-75.3 -75.3,-75.3 z m 0,146.4 c -39.2,0 -71.1,-31.9 -71.1,-71.1 0,-39.2 31.9,-71.1 71.1,-71.1 39.2,0 71.1,31.9 71.1,71.1 0,39.2 -31.9,71.1 -71.1,71.1 z"
         id="path141"
         style="fill:#000000;fill-opacity:1" />
    </g>
  </g>
  <g
     inkscape:groupmode="layer"
     id="g3040"
     inkscape:label="Kettes kör"
     style="display:inline">
    <g
       id="table_g3210">
      <title
         id="title211">table_g3210</title>
      <path
         fill="#ffffff"
         d="m 18.861667,198.1949 v 11.29771 c 0,2.03729 1.666875,3.67771 3.677708,3.67771 h 3.307292 v -18.67958 h -3.307292 c -2.010833,0 -3.677708,1.66687 -3.677708,3.70416 z m 5.900208,13.86417 h -2.2225 c -1.42875,0 -2.592917,-1.16417 -2.592917,-2.59292 v -11.29771 c 0,-1.42875 1.164167,-2.59291 2.592917,-2.59291 h 2.2225 z"
         id="path3028"
         style="fill:#000000;fill-opacity:1;stroke-width:0.264583" />
      <path
         fill="#ffffff"
         d="m 74.556458,194.49074 h -3.307292 v 18.67958 h 3.307292 c 2.037291,0 3.677708,-1.66688 3.677708,-3.67771 V 198.1949 c 0.02646,-2.03729 -1.640417,-3.70416 -3.677708,-3.70416 z m 2.592916,15.00187 c 0,1.42875 -1.164166,2.59292 -2.592916,2.59292 h -2.2225 v -16.45709 h 2.2225 c 1.42875,0 2.592916,1.16417 2.592916,2.59292 z"
         id="path3030"
         style="fill:#000000;fill-opacity:1;stroke-width:0.264583" />
      <path
         fill="#ffffff"
         d="m 48.203958,183.9074 c -10.980208,0 -19.923125,8.94292 -19.923125,19.92313 0,10.98021 8.942917,19.92312 19.923125,19.92312 10.980208,0 19.923125,-8.94291 19.923125,-19.92312 -0.02646,-10.98021 -8.942917,-19.92313 -19.923125,-19.92313 z m 0,38.735 c -10.371666,0 -18.811875,-8.44021 -18.811875,-18.81187 0,-10.37167 8.440209,-18.81188 18.811875,-18.81188 10.371667,0 18.811875,8.44021 18.811875,18.81188 0,10.37166 -8.440208,18.81187 -18.811875,18.81187 z"
         id="path3036"
         style="fill:#000000;fill-opacity:1;stroke-width:0.264583" />
    </g>
  </g>
  <g
     inkscape:groupmode="layer"
     id="layer3"
     inkscape:label="Négyes négyzet"
     style="display:inline">
    <g
       id="table_g2397"
       transform="matrix(0.26458333,0,0,0.26458333,-172.80949,-70.781272)"
       style="display:inline;fill:#000000;fill-opacity:1">
      <title
         id="title207">table_g2397</title>
      <path
         fill="#ffffff"
         d="m 727.8,732.6 v 42.7 c 0,7.7 6.3,13.9 13.9,13.9 h 12.5 v -70.6 h -12.5 c -7.6,0 -13.9,6.3 -13.9,14 z m 22.3,52.4 h -8.4 c -5.4,0 -9.8,-4.4 -9.8,-9.8 v -42.7 c 0,-5.4 4.4,-9.8 9.8,-9.8 h 8.4 z"
         id="path117"
         style="fill:#000000;fill-opacity:1" />
      <path
         fill="#ffffff"
         d="m 938.3,718.6 h -12.5 v 70.6 h 12.5 c 7.7,0 13.9,-6.3 13.9,-13.9 v -42.7 c 0,-7.7 -6.2,-14 -13.9,-14 z m 9.8,56.7 c 0,5.4 -4.4,9.8 -9.8,9.8 h -8.4 v -62.2 h 8.4 c 5.4,0 9.8,4.4 9.8,9.8 z"
         id="path119"
         style="fill:#000000;fill-opacity:1" />
      <path
         fill="#ffffff"
         d="m 875.3,655.6 c 0,-7.7 -6.3,-13.9 -13.9,-13.9 h -42.7 c -7.7,0 -13.9,6.3 -13.9,13.9 v 12.5 h 70.6 v -12.5 z m -4.2,8.4 h -62.2 v -8.4 c 0,-5.4 4.4,-9.8 9.8,-9.8 h 42.7 c 5.4,0 9.8,4.4 9.8,9.8 v 8.4 z"
         id="path121"
         style="fill:#000000;fill-opacity:1" />
      <path
         fill="#ffffff"
         d="m 804.7,852.2 c 0,7.7 6.3,13.9 13.9,13.9 h 42.7 c 7.7,0 13.9,-6.3 13.9,-13.9 v -12.5 h -70.6 v 12.5 z m 4.2,-8.4 h 62.2 v 8.4 c 0,5.4 -4.4,9.8 -9.8,9.8 h -42.7 c -5.4,0 -9.8,-4.4 -9.8,-9.8 v -8.4 z"
         id="path123"
         style="fill:#000000;fill-opacity:1" />
      <path
         fill="#ffffff"
         d="M 764.7,829.2 H 915.3 V 678.6 H 764.7 Z m 4.2,-146.4 H 911.1 V 825 H 768.9 Z"
         id="path143"
         style="fill:#000000;fill-opacity:1" />
    </g>
  </g>
  <g
     inkscape:groupmode="layer"
     id="g3224"
     inkscape:label="Kettes négyzet"
     style="display:inline">
    <g
       id="table_g3394">
      <title
         id="title213">table_g3394</title>
      <path
         fill="#ffffff"
         d="m 117.92132,191.23397 v 11.2977 c 0,2.0373 1.66688,3.67771 3.67771,3.67771 h 3.30729 V 187.5298 h -3.30729 c -2.01083,0 -3.67771,1.66687 -3.67771,3.70417 z m 5.90021,13.86416 h -2.2225 c -1.42875,0 -2.59291,-1.16416 -2.59291,-2.59291 v -11.29771 c 0,-1.42875 1.16416,-2.59292 2.59291,-2.59292 h 2.2225 z"
         id="path3212"
         style="fill:#000000;fill-opacity:1;stroke-width:0.264583" />
      <path
         fill="#ffffff"
         d="m 173.61612,187.5298 h -3.3073 v 18.67958 h 3.3073 c 2.03729,0 3.6777,-1.66687 3.6777,-3.67771 v -11.2977 c 0,-2.0373 -1.64041,-3.70417 -3.6777,-3.70417 z m 2.59291,15.00187 c 0,1.42875 -1.16416,2.59292 -2.59291,2.59292 h -2.2225 v -16.45708 h 2.2225 c 1.42875,0 2.59291,1.16416 2.59291,2.59291 z"
         id="path3214"
         style="fill:#000000;fill-opacity:1;stroke-width:0.264583" />
      <path
         fill="#ffffff"
         d="m 127.68445,216.79272 h 39.84625 v -39.84625 h -39.84625 z m 1.11125,-38.735 h 37.62375 v 37.62375 H 128.7957 Z"
         id="path3220"
         style="fill:#000000;fill-opacity:1;stroke-width:0.264583" />
    </g>
  </g>
  <g
     inkscape:groupmode="layer"
     id="layer4"
     inkscape:label="Hatos téglalsap">
    <g
       id="table_g2944"
       transform="matrix(0.26458333,0,0,0.26458333,-163.5556,-73.359445)"
       style="fill:#000000;fill-opacity:1">
      <title
         id="title209">table_g2944</title>
      <path
         fill="#ffffff"
         d="m 1042.6,829.2 h 265.6 V 678.6 h -265.6 z m 4.2,-146.4 H 1304 V 825 h -257.2 z"
         id="path127"
         style="fill:#000000;fill-opacity:1" />
      <path
         fill="#ffffff"
         d="m 1109.6,641.3 c -7.7,0 -13.9,6.3 -13.9,13.9 v 12.5 h 70.6 v -12.5 c 0,-7.7 -6.3,-13.9 -13.9,-13.9 z m 52.4,14 v 8.4 h -62.2 v -8.4 c 0,-5.4 4.4,-9.8 9.8,-9.8 h 42.7 c 5.3,0 9.7,4.4 9.7,9.8 z"
         id="path129"
         style="fill:#000000;fill-opacity:1" />
      <path
         fill="#ffffff"
         d="m 1259.4,655.3 c 0,-7.7 -6.3,-13.9 -13.9,-13.9 h -42.7 c -7.7,0 -13.9,6.3 -13.9,13.9 v 12.5 h 70.6 v -12.5 z m -4.2,8.3 H 1193 v -8.4 c 0,-5.4 4.4,-9.8 9.8,-9.8 h 42.7 c 5.4,0 9.8,4.4 9.8,9.8 v 8.4 z"
         id="path131"
         style="fill:#000000;fill-opacity:1" />
      <path
         fill="#ffffff"
         d="m 1095.6,853.2 c 0,7.7 6.3,13.9 13.9,13.9 h 42.7 c 7.7,0 13.9,-6.3 13.9,-13.9 v -12.5 h -70.6 v 12.5 z m 4.2,-8.3 h 62.2 v 8.4 c 0,5.4 -4.4,9.8 -9.8,9.8 h -42.7 c -5.4,0 -9.8,-4.4 -9.8,-9.8 v -8.4 z"
         id="path133"
         style="fill:#000000;fill-opacity:1" />
      <path
         fill="#ffffff"
         d="m 1007.8,732.6 v 42.7 c 0,7.7 6.3,13.9 13.9,13.9 h 12.5 v -70.6 h -12.5 c -7.7,0 -13.9,6.3 -13.9,14 z m 22.3,52.4 h -8.4 c -5.4,0 -9.8,-4.4 -9.8,-9.8 v -42.7 c 0,-5.4 4.4,-9.8 9.8,-9.8 h 8.4 z"
         id="path135"
         style="fill:#000000;fill-opacity:1" />
      <path
         fill="#ffffff"
         d="m 1327.7,718.6 h -12.5 v 70.6 h 12.5 c 7.7,0 13.9,-6.3 13.9,-13.9 v -42.7 c 0.1,-7.7 -6.2,-14 -13.9,-14 z m 9.8,56.7 c 0,5.4 -4.4,9.8 -9.8,9.8 h -8.4 v -62.2 h 8.4 c 5.4,0 9.8,4.4 9.8,9.8 z"
         id="path137"
         style="fill:#000000;fill-opacity:1" />
      <path
         fill="#ffffff"
         d="m 1188.8,853.2 c 0,7.7 6.3,13.9 13.9,13.9 h 42.7 c 7.7,0 13.9,-6.3 13.9,-13.9 v -12.5 h -70.6 v 12.5 z m 4.2,-8.3 h 62.2 v 8.4 c 0,5.4 -4.4,9.8 -9.8,9.8 h -42.7 c -5.4,0 -9.8,-4.4 -9.8,-9.8 v -8.4 z"
         id="path139"
         style="fill:#000000;fill-opacity:1" />
    </g>
  </g>
  <g
     inkscape:groupmode="layer"
     id="g3412"
     inkscape:label="Nyolcas téglalap">
    <path
       style="fill:#9c9cc4;stroke:none;stroke-width:1.34918;fill-opacity:1"
       d="m 149.08465,221.03616 c -11.52588,-2.18206 -25.6165,-9.89579 -34.86205,-19.08479 -32.449122,-32.25064 -26.830785,-84.07771 11.82863,-109.114736 16.22168,-10.50566 16.49821,-10.536512 94.43732,-10.536512 75.90023,0 75.56138,-0.03119 91.53782,8.426656 9.10663,4.821 22.92743,18.913822 28.26047,28.816702 14.29871,26.55113 8.80533,60.80083 -13.21759,82.40789 -9.7355,9.55166 -23.65408,16.93235 -36.23095,19.2124 -9.98298,1.80979 -132.10076,1.69987 -141.75365,-0.12763 z"
       id="path190"
       transform="scale(0.26458333)" />
    <path
       style="fill:#9c9cc4;stroke:none;stroke-width:1.34918;fill-opacity:1"
       d="m 60.713204,179.44125 c -2.503121,-2.50312 -2.698364,-4.49728 -2.698364,-27.56032 v -24.86194 l 3.554905,-2.79629 c 1.996818,-1.5707 5.544833,-2.79629 8.095094,-2.79629 h 4.540189 v 30.3566 30.3566 h -5.39673 c -3.597819,0 -6.296184,-0.89945 -8.095094,-2.69836 z"
       id="path229"
       transform="scale(0.26458333)" />
    <path
       style="fill:#9c9cc4;stroke:none;stroke-width:1.34918;fill-opacity:1"
       d="m 145.71169,55.551657 c 0,-3.650856 0.91393,-6.020145 3.12262,-8.095094 2.96974,-2.789926 4.32382,-2.933546 27.65823,-2.933546 22.73672,0 24.73347,0.197839 27.23399,2.698364 1.79891,1.79891 2.69837,4.497275 2.69837,8.095094 v 5.396729 h -30.35661 -30.3566 z"
       id="path268"
       transform="scale(0.26458333)" />
    <path
       style="fill:#9c9cc4;stroke:none;stroke-width:1.34918;fill-opacity:1"
       d="m 238.80527,55.551657 c 0,-3.650856 0.91393,-6.020145 3.12262,-8.095094 2.96974,-2.789926 4.32382,-2.933546 27.65823,-2.933546 22.73672,0 24.73347,0.197839 27.23399,2.698364 1.79891,1.79891 2.69837,4.497275 2.69837,8.095094 v 5.396729 h -30.35661 -30.3566 z"
       id="path307"
       transform="scale(0.26458333)" />
    <path
       style="fill:#9c9cc4;stroke:none;stroke-width:1.34918;fill-opacity:1"
       d="m 365.62841,151.78301 v -30.3566 h 4.54019 c 2.55026,0 6.09827,1.22559 8.09509,2.79629 l 3.55491,2.79629 v 24.86194 c 0,23.06304 -0.19525,25.0572 -2.69837,27.56032 -1.79891,1.79891 -4.49727,2.69836 -8.09509,2.69836 h -5.39673 z"
       id="path346"
       transform="scale(0.26458333)" />
    <path
       style="fill:#9c9cc4;stroke:none;stroke-width:1.34918;fill-opacity:1"
       d="m 241.73882,257.26957 c -1.91646,-2.03998 -2.93355,-4.84662 -2.93355,-8.09509 V 244.202 h 30.3566 30.35661 v 5.39673 c 0,3.59782 -0.89946,6.29618 -2.69837,8.09509 -2.50204,2.50204 -4.49727,2.69837 -27.42306,2.69837 -24.09997,0 -24.79881,-0.0789 -27.65823,-3.12262 z"
       id="path385"
       transform="scale(0.26458333)" />
    <path
       style="fill:#9c9cc4;stroke:none;stroke-width:1.34918;fill-opacity:1"
       d="m 148.41006,257.69382 c -1.79891,-1.79891 -2.69837,-4.49727 -2.69837,-8.09509 V 244.202 h 30.3566 30.35661 v 5.14233 c 0,3.31016 -0.98013,6.19436 -2.75093,8.09509 -2.63803,2.8316 -3.77302,2.95277 -27.65823,2.95277 -23.10841,0 -25.10221,-0.19489 -27.60568,-2.69837 z"
       id="path424"
       transform="scale(0.26458333)" />
    <path
       style="fill:#9c9cc4;stroke:none;stroke-width:1.34918;fill-opacity:1"
       d="m 531.43548,208.9693 c -1.93342,-0.70957 -4.21016,-2.81517 -5.05943,-4.67911 -2.04229,-4.48234 -2.08013,-45.1325 -0.0462,-49.59655 1.75017,-3.8412 6.43678,-6.28358 12.05735,-6.28358 h 3.98406 v 31.03119 31.03119 l -3.71025,-0.10652 c -2.04064,-0.0586 -5.29214,-0.68706 -7.22556,-1.39663 z"
       id="path463"
       transform="scale(0.26458333)" />
    <path
       style="fill:#9c9cc4;stroke:none;stroke-width:1.34918;fill-opacity:1"
       d=""
       id="path502"
       transform="scale(0.26458333)" />
    <path
       style="fill:#9c9cc4;stroke:none;stroke-width:1.34918;fill-opacity:1"
       d="m 603.0845,83.072637 c 0,-4.846186 0.67083,-6.501071 3.5549,-8.769686 3.26654,-2.569455 5.34084,-2.796288 25.57098,-2.796288 13.2616,0 23.32339,0.595649 25.30374,1.497959 3.8412,1.750166 6.28358,6.436776 6.28358,12.057347 v 3.984064 h -30.3566 -30.3566 z"
       id="path541"
       transform="scale(0.26458333)" />
    <path
       style="fill:#9c9cc4;stroke:none;stroke-width:1.34918;fill-opacity:1"
       d="m 723.16172,179.2636 v -31.20884 l 5.73192,0.76882 c 3.87964,0.52036 6.71358,1.91005 8.76969,4.30042 2.88381,3.35263 3.03776,4.65284 3.03776,25.65441 0,13.3398 -0.5947,23.42803 -1.49795,25.41045 -1.75017,3.8412 -6.43678,6.28358 -12.05735,6.28358 h -3.98407 z"
       id="path580"
       transform="scale(0.26458333)" />
    <path
       style="fill:#9c9cc4;stroke:none;stroke-width:1.34918;fill-opacity:1"
       d="m 614.24832,247.52228 c -30.87874,-8.31681 -52.98847,-36.72399 -52.98847,-68.08103 0,-38.07858 32.0789,-70.15748 70.15748,-70.15748 38.07858,0 70.15748,32.0789 70.15748,70.15748 0,31.65445 -22.27989,59.99921 -53.56685,68.14843 -9.52889,2.48195 -24.40462,2.45226 -33.75964,-0.0673 z"
       id="path619"
       transform="scale(0.26458333)" />
    <path
       style="fill:#9c9cc4;stroke:none;stroke-width:1.34918;fill-opacity:1"
       d="m 607.54052,285.76093 c -3.11912,-1.507 -5.8052,-7.40777 -5.8052,-12.75284 v -3.17163 h 31.03119 31.03119 v 3.98407 c 0,5.62057 -2.44238,10.30718 -6.28358,12.05735 -4.25312,1.93785 -45.92249,1.84033 -49.9736,-0.11695 z"
       id="path658"
       transform="scale(0.26458333)" />
    <path
       style="fill:#9c9cc4;stroke:none;stroke-width:1.34918;fill-opacity:1"
       d="m 116.02968,486.38023 v -70.83207 h 70.83207 70.83207 v 70.83207 70.83207 h -70.83207 -70.83207 z"
       id="path697"
       transform="scale(0.26458333)" />
    <path
       style="fill:#9c9cc4;stroke:none;stroke-width:1.34918;fill-opacity:1"
       d="m 156.50515,390.14887 c 0,-3.65085 0.91393,-6.02014 3.12262,-8.09509 2.96974,-2.78993 4.32382,-2.93355 27.65823,-2.93355 22.73672,0 24.73346,0.19784 27.23399,2.69837 1.79891,1.79891 2.69836,4.49727 2.69836,8.09509 v 5.39673 h -30.3566 -30.3566 z"
       id="path736"
       transform="scale(0.26458333)" />
    <path
       style="fill:#9c9cc4;stroke:none;stroke-width:1.34918;fill-opacity:1"
       d="m 277.93156,486.38023 v -30.35661 h 5.16155 c 3.65085,0 6.02014,0.91394 8.09509,3.12262 2.78778,2.96745 2.93355,4.33011 2.93355,27.42306 0,23.65651 -0.0828,24.37817 -3.12262,27.23398 -2.03998,1.91646 -4.84662,2.93355 -8.09509,2.93355 h -4.97248 z"
       id="path775"
       transform="scale(0.26458333)" />
    <path
       style="fill:#9c9cc4;stroke:none;stroke-width:1.34918;fill-opacity:1"
       d="m 82.535303,513.61421 c -2.789926,-2.96974 -2.933546,-4.32382 -2.933546,-27.65823 0,-22.73672 0.19784,-24.73347 2.698365,-27.23399 1.798909,-1.79891 4.497274,-2.69837 8.095094,-2.69837 h 5.396729 v 30.35661 30.3566 h -5.161548 c -3.650856,0 -6.020144,-0.91393 -8.095094,-3.12262 z"
       id="path814"
       transform="scale(0.26458333)" />
    <path
       style="fill:#9c9cc4;stroke:none;stroke-width:1.34918;fill-opacity:1"
       d="m 159.25607,590.68745 c -1.7708,-1.90072 -2.75092,-4.78492 -2.75092,-8.09509 v -5.14233 h 30.3566 30.3566 v 5.16155 c 0,3.65086 -0.91393,6.02015 -3.12261,8.0951 -2.96924,2.78944 -4.32523,2.93354 -27.60568,2.93354 -23.44878,0 -24.59928,-0.12474 -27.23399,-2.95277 z"
       id="path853"
       transform="scale(0.26458333)" />
    <path
       style="fill:#9c9cc4;stroke:none;stroke-width:1.34918;fill-opacity:1"
       d="M 429.03998,476.26136 V 406.10388 H 557.2123 685.38462 v 70.15748 70.15748 H 557.2123 429.03998 Z"
       id="path892"
       transform="scale(0.26458333)" />
    <path
       style="fill:#9c9cc4;stroke:none;stroke-width:1.34918;fill-opacity:1"
       d="m 482.05321,380.27142 c 1.38918,-10.35713 3.39391,-11.20687 27.63416,-11.71327 25.13792,-0.52516 30.40756,0.56448 32.55763,6.73218 0.81151,2.32791 1.47548,5.65979 1.47548,7.40419 v 3.17162 H 512.51164 481.3028 Z"
       id="path931"
       transform="scale(0.26458333)" />
    <path
       style="fill:#9c9cc4;stroke:none;stroke-width:1.34918;fill-opacity:1"
       d="m 576.10085,379.89275 c 0,-4.84619 0.67083,-6.50107 3.55491,-8.76969 3.26847,-2.57098 5.33931,-2.79629 25.70146,-2.79629 28.31999,0 31.37642,1.34447 31.43841,13.82912 l 0.0184,3.71025 h -30.35661 -30.3566 z"
       id="path970"
       transform="scale(0.26458333)" />
    <path
       style="fill:#9c9cc4;stroke:none;stroke-width:1.34918;fill-opacity:1"
       d="m 701.57481,476.93595 v -30.3566 h 5.97339 c 4.88924,0 6.4958,0.66412 8.85167,3.65912 2.73447,3.47632 2.85732,4.86418 2.45899,27.78022 -0.40817,23.48242 -0.50361,24.18931 -3.6044,26.69748 -1.91391,1.54812 -5.27937,2.57638 -8.43239,2.57638 h -5.24726 z"
       id="path1009"
       transform="scale(0.26458333)" />
    <path
       style="fill:#9c9cc4;stroke:none;stroke-width:1.34918;fill-opacity:1"
       d="m 397.82096,504.71617 c -3.1008,-2.50817 -3.19623,-3.21506 -3.6044,-26.69748 -0.39833,-22.91604 -0.27548,-24.3039 2.45899,-27.78022 2.35586,-2.995 3.96243,-3.65912 8.85166,-3.65912 h 5.9734 v 30.3566 30.3566 h -5.24726 c -3.15302,0 -6.51849,-1.02826 -8.43239,-2.57638 z"
       id="path1048"
       transform="scale(0.26458333)" />
    <path
       style="fill:#9c9cc4;stroke:none;stroke-width:1.34918;fill-opacity:1"
       d="m 487.54603,583.96714 c -3.48328,-1.68664 -5.88794,-6.57822 -5.88794,-11.97732 v -3.98406 h 31.03119 31.0312 v 3.98406 c 0,5.62057 -2.44239,10.30718 -6.28358,12.05735 -4.18994,1.90906 -45.92119,1.84212 -49.89087,-0.08 z"
       id="path1087"
       transform="scale(0.26458333)" />
    <path
       style="fill:#9c9cc4;stroke:none;stroke-width:1.34918;fill-opacity:1"
       d="m 580.55688,583.93022 c -3.11912,-1.507 -5.80521,-7.40777 -5.80521,-12.75284 v -3.17162 h 31.03119 31.0312 v 4.11454 c 0,5.648 -3.31097,11.56431 -7.02918,12.56033 -5.24549,1.40514 -46.05406,0.78308 -49.228,-0.75041 z"
       id="path1126"
       transform="scale(0.26458333)" />
    <path
       style="fill:#9c9cc4;stroke:none;stroke-width:1.34918;fill-opacity:1"
       d="m 487.05482,744.07405 v -70.83207 h 70.83207 70.83207 v 70.83207 70.83207 h -70.83207 -70.83207 z"
       id="path1165"
       transform="scale(0.26458333)" />
    <path
       style="fill:#9c9cc4;stroke:none;stroke-width:1.34918;fill-opacity:1"
       d="m 648.9567,744.07405 v -30.3566 h 5.16154 c 3.65086,0 6.02015,0.91393 8.0951,3.12261 2.78778,2.96746 2.93354,4.33012 2.93354,27.42306 0,23.65651 -0.0827,24.37818 -3.12261,27.23399 -2.03998,1.91646 -4.84662,2.93354 -8.0951,2.93354 h -4.97247 z"
       id="path1282"
       transform="scale(0.26458333)" />
    <path
       style="fill:#9c9cc4;stroke:none;stroke-width:1.34918;fill-opacity:1"
       d="m 453.56044,771.30804 c -2.78992,-2.96974 -2.93354,-4.32383 -2.93354,-27.65824 0,-22.73671 0.19784,-24.73346 2.69836,-27.23399 1.79891,-1.79891 4.49727,-2.69836 8.09509,-2.69836 h 5.39673 v 30.3566 30.3566 h -5.16154 c -3.65086,0 -6.02015,-0.91393 -8.0951,-3.12261 z"
       id="path1321"
       transform="scale(0.26458333)" />
    <path
       style="fill:#9c9cc4;stroke:none;stroke-width:1.34918;fill-opacity:1"
       d="m 273.88401,770.20546 v -31.20884 l 5.73192,0.76881 c 3.87964,0.52037 6.71357,1.91006 8.76968,4.30043 2.88381,3.35263 3.03777,4.65284 3.03777,25.65441 0,13.3398 -0.5947,23.42802 -1.49796,25.41045 -1.75016,3.84119 -6.43677,6.28358 -12.05734,6.28358 h -3.98407 z"
       id="path1360"
       transform="scale(0.26458333)" />
    <path
       style="fill:#9c9cc4;stroke:none;stroke-width:1.34918;fill-opacity:1"
       d="m 164.97061,838.46414 c -30.87875,-8.31681 -52.98848,-36.72399 -52.98848,-68.08103 0,-38.07858 32.07891,-70.15748 70.15748,-70.15748 38.07858,0 70.15748,32.0789 70.15748,70.15748 0,31.65445 -22.27988,59.9992 -53.56684,68.14842 -9.52889,2.48196 -24.40462,2.45226 -33.75964,-0.0673 z"
       id="path1399"
       transform="scale(0.26458333)" />
    <path
       style="fill:#9c9cc4;stroke:none;stroke-width:1.34918;fill-opacity:1"
       d="m 82.15777,799.91115 c -1.933419,-0.70956 -4.210164,-2.81516 -5.059433,-4.67911 -2.042289,-4.48233 -2.080129,-45.13249 -0.04617,-49.59655 1.750165,-3.84119 6.436776,-6.28358 12.057347,-6.28358 h 3.984064 v 31.0312 31.03119 l -3.710251,-0.10652 c -2.040638,-0.0586 -5.29214,-0.68707 -7.225559,-1.39663 z"
       id="path1438"
       transform="scale(0.26458333)" />
  </g>
</svg>
